<?xml version="1.0" standalone="no"?>
<!DOCTYPE svg PUBLIC "-//W3C//DTD SVG 20010904//EN"
 "http://www.w3.org/TR/2001/REC-SVG-20010904/DTD/svg10.dtd">
<svg version="1.0" xmlns="http://www.w3.org/2000/svg"
 width="383.000000pt" height="383.000000pt" viewBox="0 0 383.000000 383.000000"
 preserveAspectRatio="xMidYMid meet">
<metadata>
Created by potrace 1.14, written by Peter Selinger 2001-2017
</metadata>
<g transform="translate(0.000000,383.000000) scale(0.100000,-0.100000)"
fill="#000000" stroke="none">
<path d="M1759 3817 c-2 -3 -35 -8 -74 -12 -105 -11 -109 -12 -125 -18 -8 -3
-42 -11 -75 -18 -33 -7 -64 -13 -70 -15 -17 -3 -189 -64 -210 -73 -128 -59
-221 -106 -227 -115 -4 -6 -8 -8 -8 -4 0 6 -86 -46 -115 -69 -5 -5 -34 -25
-63 -46 -73 -52 -102 -78 -212 -187 -112 -112 -142 -148 -233 -283 -130 -192
-244 -469 -282 -682 -2 -16 -7 -39 -9 -50 -20 -102 -29 -457 -13 -550 4 -22
10 -56 13 -75 12 -71 15 -86 31 -150 26 -106 82 -258 136 -370 28 -58 53 -107
57 -110 3 -3 19 -27 35 -55 95 -165 291 -382 453 -502 126 -92 140 -103 145
-103 3 0 35 -18 72 -40 36 -23 76 -45 88 -49 12 -5 56 -24 97 -43 41 -19 109
-45 150 -58 41 -13 84 -27 95 -31 25 -10 156 -38 204 -45 20 -2 65 -9 101 -14
36 -5 142 -7 235 -5 162 3 187 5 280 21 22 4 49 8 60 10 67 9 267 72 350 109
28 12 73 32 100 45 61 27 213 117 260 153 6 4 41 31 80 59 74 56 248 224 305
297 96 120 265 401 243 401 -4 0 -3 4 2 8 28 20 116 283 141 422 27 152 32
221 29 390 -1 102 -5 199 -9 215 -3 17 -11 59 -17 95 -18 106 -75 310 -91 326
-3 3 -293 5 -644 5 l-639 0 -20 -28 c-11 -15 -20 -30 -20 -33 0 -11 -89 -185
-98 -191 -5 -3 -8 -9 -6 -13 3 -10 -203 -419 -216 -428 -5 -4 -7 -8 -2 -8 4 0
-15 -42 -42 -94 -27 -52 -47 -97 -44 -100 4 -3 1 -6 -5 -6 -6 0 -14 -9 -17
-20 -3 -11 -10 -20 -15 -20 -4 0 -113 209 -240 465 -128 256 -237 468 -243
472 -10 6 -356 7 -363 1 -2 -2 177 -364 396 -803 220 -440 400 -806 400 -812
0 -7 4 -13 8 -13 4 0 14 -16 20 -35 8 -19 18 -32 25 -29 13 5 37 51 37 71 0 7
3 13 8 13 4 0 13 15 21 33 20 48 114 241 121 247 3 3 6 11 8 19 2 8 15 35 30
60 14 25 27 52 29 60 1 8 8 18 15 22 7 5 10 9 6 9 -6 0 300 616 327 660 5 8
10 17 10 20 0 3 16 35 34 73 31 60 37 67 65 68 37 1 798 1 807 0 15 -2 36
-176 41 -346 1 -24 -13 -201 -17 -215 -2 -8 -6 -31 -9 -50 -15 -101 -80 -295
-138 -415 -48 -100 -119 -208 -216 -327 -29 -35 -138 -142 -177 -173 -21 -16
-46 -37 -55 -46 -28 -26 -212 -139 -227 -139 -7 0 -13 -4 -13 -10 0 -5 -4 -10
-9 -10 -5 0 -35 -12 -67 -27 -33 -15 -61 -27 -64 -28 -3 -1 -14 -5 -25 -9 -78
-30 -105 -38 -183 -55 -136 -31 -257 -45 -367 -44 -53 0 -216 13 -235 18 -8 2
-30 7 -48 10 -197 33 -402 118 -587 241 -94 63 -136 98 -219 179 -65 65 -154
166 -147 169 3 0 -10 17 -28 36 -17 19 -34 45 -37 58 -4 12 -9 22 -13 22 -4 0
-24 33 -45 73 -21 39 -42 79 -46 87 -15 25 -61 136 -63 151 -2 8 -5 19 -9 24
-20 34 -75 309 -77 390 -3 104 -1 227 5 274 9 88 43 239 70 316 14 39 27 78
29 89 7 31 118 246 127 246 4 0 8 5 8 11 0 10 49 84 75 116 6 6 21 26 35 44
76 101 269 267 415 356 59 36 248 123 267 123 8 0 18 4 23 9 23 19 231 65 358
77 113 12 301 6 387 -11 14 -3 50 -9 80 -15 30 -5 71 -15 90 -21 19 -5 42 -12
51 -14 22 -5 152 -57 214 -86 142 -66 308 -185 432 -309 l82 -83 178 1 c224 0
213 -1 213 16 0 26 -150 208 -255 311 -113 110 -147 138 -244 205 -36 25 -68
48 -69 53 -2 4 -7 5 -12 2 -4 -3 -13 2 -20 10 -7 8 -18 15 -25 15 -8 0 -15 4
-17 8 -1 5 -30 21 -63 37 -33 15 -62 30 -65 34 -6 7 -30 16 -170 68 -103 38
-259 79 -330 87 -25 3 -56 8 -70 12 -29 7 -394 17 -401 11z"/>
</g>
</svg>
